<mxfile host="app.diagrams.net" modified="2024-02-05T20:41:37.172Z" agent="Mozilla/5.0 (Macintosh; Intel Mac OS X 10_15_7) AppleWebKit/605.1.15 (KHTML, like Gecko) Version/17.3 Safari/605.1.15" etag="WPrzOO4fqIBMvDtbfDFZ" version="23.1.1" type="github">
  <diagram name="Page-1" id="rjDrSSfWqjY-BQv2FjJS">
    <mxGraphModel dx="1647" dy="556" grid="1" gridSize="10" guides="1" tooltips="1" connect="1" arrows="1" fold="1" page="1" pageScale="1" pageWidth="827" pageHeight="1169" background="none" math="0" shadow="0">
      <root>
        <mxCell id="0" />
        <mxCell id="1" parent="0" />
        <mxCell id="TZ_Lwikpa9NxjboD3mck-4" value="" style="edgeStyle=orthogonalEdgeStyle;rounded=0;orthogonalLoop=1;jettySize=auto;html=1;fontColor=#000000;" parent="1" source="AGraJKZwO1HRTsfSJN3S-1" target="AGraJKZwO1HRTsfSJN3S-2" edge="1">
          <mxGeometry relative="1" as="geometry" />
        </mxCell>
        <mxCell id="AGraJKZwO1HRTsfSJN3S-1" value="load particles" style="rounded=0;whiteSpace=wrap;html=1;fontColor=#000000;" parent="1" vertex="1">
          <mxGeometry x="-548" y="80" width="110" height="50" as="geometry" />
        </mxCell>
        <mxCell id="AGraJKZwO1HRTsfSJN3S-16" value="" style="edgeStyle=orthogonalEdgeStyle;rounded=0;orthogonalLoop=1;jettySize=auto;html=1;fontColor=#000000;" parent="1" source="AGraJKZwO1HRTsfSJN3S-2" target="AGraJKZwO1HRTsfSJN3S-15" edge="1">
          <mxGeometry relative="1" as="geometry" />
        </mxCell>
        <mxCell id="AGraJKZwO1HRTsfSJN3S-2" value="&lt;div&gt;ANN: build kd tree&lt;/div&gt;" style="rounded=0;whiteSpace=wrap;html=1;fontColor=#000000;" parent="1" vertex="1">
          <mxGeometry x="-548" y="170" width="110" height="50" as="geometry" />
        </mxCell>
        <mxCell id="AGraJKZwO1HRTsfSJN3S-13" value="&lt;div style=&quot;font-size: 22px;&quot;&gt;...&lt;/div&gt;" style="text;html=1;align=center;verticalAlign=middle;resizable=0;points=[];autosize=1;strokeColor=none;fillColor=none;fontColor=#000000;" parent="1" vertex="1">
          <mxGeometry x="290" y="90" width="40" height="40" as="geometry" />
        </mxCell>
        <mxCell id="TZ_Lwikpa9NxjboD3mck-2" value="" style="edgeStyle=orthogonalEdgeStyle;rounded=0;orthogonalLoop=1;jettySize=auto;html=1;fontColor=#000000;" parent="1" source="AGraJKZwO1HRTsfSJN3S-15" target="TZ_Lwikpa9NxjboD3mck-1" edge="1">
          <mxGeometry relative="1" as="geometry" />
        </mxCell>
        <mxCell id="AGraJKZwO1HRTsfSJN3S-15" value="i = 0, j = 0, k = 0" style="rounded=0;whiteSpace=wrap;html=1;fontColor=#000000;" parent="1" vertex="1">
          <mxGeometry x="-548" y="260" width="110" height="50" as="geometry" />
        </mxCell>
        <mxCell id="TZ_Lwikpa9NxjboD3mck-6" value="" style="edgeStyle=orthogonalEdgeStyle;rounded=0;orthogonalLoop=1;jettySize=auto;html=1;fontColor=#000000;" parent="1" source="TZ_Lwikpa9NxjboD3mck-1" target="TZ_Lwikpa9NxjboD3mck-5" edge="1">
          <mxGeometry relative="1" as="geometry" />
        </mxCell>
        <mxCell id="TZ_Lwikpa9NxjboD3mck-1" value="&lt;div style=&quot;text-align: left;&quot;&gt;ANN query&lt;/div&gt;&lt;div style=&quot;text-align: left;&quot;&gt;a[0,0,0] = query(&lt;/div&gt;&lt;div style=&quot;text-align: left;&quot;&gt;&amp;nbsp;x = 0*1024 + i,&lt;/div&gt;&lt;div style=&quot;text-align: left;&quot;&gt;&amp;nbsp;y = 0*1024 + j,&lt;/div&gt;&lt;div style=&quot;text-align: left;&quot;&gt;&amp;nbsp;z = 0*1024 + k&lt;/div&gt;&lt;div style=&quot;text-align: left;&quot;&gt;)&lt;/div&gt;" style="whiteSpace=wrap;html=1;rounded=0;fontColor=#000000;" parent="1" vertex="1">
          <mxGeometry x="-555.5" y="350" width="125" height="95" as="geometry" />
        </mxCell>
        <mxCell id="TZ_Lwikpa9NxjboD3mck-8" value="" style="edgeStyle=orthogonalEdgeStyle;rounded=0;orthogonalLoop=1;jettySize=auto;html=1;fontColor=#000000;" parent="1" source="TZ_Lwikpa9NxjboD3mck-5" target="TZ_Lwikpa9NxjboD3mck-7" edge="1">
          <mxGeometry relative="1" as="geometry" />
        </mxCell>
        <mxCell id="JOAAcKpVN8bpqGciNnZg-158" style="edgeStyle=none;shape=connector;rounded=0;orthogonalLoop=1;jettySize=auto;html=1;labelBackgroundColor=default;strokeColor=default;align=center;verticalAlign=middle;fontFamily=Helvetica;fontSize=11;fontColor=#000000;endArrow=classic;" parent="1" source="TZ_Lwikpa9NxjboD3mck-5" target="JOAAcKpVN8bpqGciNnZg-75" edge="1">
          <mxGeometry relative="1" as="geometry" />
        </mxCell>
        <mxCell id="JOAAcKpVN8bpqGciNnZg-162" style="edgeStyle=none;shape=connector;rounded=0;orthogonalLoop=1;jettySize=auto;html=1;labelBackgroundColor=default;strokeColor=default;align=center;verticalAlign=middle;fontFamily=Helvetica;fontSize=11;fontColor=#000000;endArrow=classic;" parent="1" source="TZ_Lwikpa9NxjboD3mck-5" target="JOAAcKpVN8bpqGciNnZg-98" edge="1">
          <mxGeometry relative="1" as="geometry" />
        </mxCell>
        <mxCell id="JOAAcKpVN8bpqGciNnZg-166" style="edgeStyle=none;shape=connector;rounded=0;orthogonalLoop=1;jettySize=auto;html=1;labelBackgroundColor=default;strokeColor=default;align=center;verticalAlign=middle;fontFamily=Helvetica;fontSize=11;fontColor=#000000;endArrow=classic;" parent="1" source="TZ_Lwikpa9NxjboD3mck-5" target="JOAAcKpVN8bpqGciNnZg-120" edge="1">
          <mxGeometry relative="1" as="geometry" />
        </mxCell>
        <mxCell id="TZ_Lwikpa9NxjboD3mck-5" value="write a&lt;font&gt;[0,0,0]&lt;/font&gt;" style="shape=parallelogram;perimeter=parallelogramPerimeter;whiteSpace=wrap;html=1;fixedSize=1;rounded=0;fontColor=#000000;" parent="1" vertex="1">
          <mxGeometry x="-553" y="480" width="120" height="40" as="geometry" />
        </mxCell>
        <mxCell id="TZ_Lwikpa9NxjboD3mck-10" value="" style="edgeStyle=orthogonalEdgeStyle;rounded=0;orthogonalLoop=1;jettySize=auto;html=1;fontColor=#000000;" parent="1" source="TZ_Lwikpa9NxjboD3mck-7" target="TZ_Lwikpa9NxjboD3mck-9" edge="1">
          <mxGeometry relative="1" as="geometry" />
        </mxCell>
        <mxCell id="TZ_Lwikpa9NxjboD3mck-7" value="read all a[r,s,t]" style="shape=parallelogram;perimeter=parallelogramPerimeter;whiteSpace=wrap;html=1;fixedSize=1;rounded=0;fontColor=#000000;" parent="1" vertex="1">
          <mxGeometry x="-553" y="590" width="120" height="40" as="geometry" />
        </mxCell>
        <mxCell id="JOAAcKpVN8bpqGciNnZg-4" value="" style="edgeStyle=orthogonalEdgeStyle;rounded=0;orthogonalLoop=1;jettySize=auto;html=1;fontColor=#000000;" parent="1" source="TZ_Lwikpa9NxjboD3mck-9" target="JOAAcKpVN8bpqGciNnZg-3" edge="1">
          <mxGeometry relative="1" as="geometry" />
        </mxCell>
        <mxCell id="TZ_Lwikpa9NxjboD3mck-9" value="f[i,j,k] = sum(a[r,s,t])" style="whiteSpace=wrap;html=1;rounded=0;fontColor=#000000;" parent="1" vertex="1">
          <mxGeometry x="-565.5" y="670" width="145" height="50" as="geometry" />
        </mxCell>
        <mxCell id="JOAAcKpVN8bpqGciNnZg-6" value="" style="edgeStyle=orthogonalEdgeStyle;rounded=0;orthogonalLoop=1;jettySize=auto;html=1;fontColor=#000000;" parent="1" source="JOAAcKpVN8bpqGciNnZg-3" target="JOAAcKpVN8bpqGciNnZg-5" edge="1">
          <mxGeometry relative="1" as="geometry" />
        </mxCell>
        <mxCell id="JOAAcKpVN8bpqGciNnZg-10" value="" style="edgeStyle=orthogonalEdgeStyle;rounded=0;orthogonalLoop=1;jettySize=auto;html=1;fontColor=#000000;" parent="1" source="JOAAcKpVN8bpqGciNnZg-3" target="JOAAcKpVN8bpqGciNnZg-9" edge="1">
          <mxGeometry relative="1" as="geometry" />
        </mxCell>
        <mxCell id="JOAAcKpVN8bpqGciNnZg-11" value="&lt;div&gt;Y&lt;/div&gt;" style="edgeLabel;html=1;align=center;verticalAlign=middle;resizable=0;points=[];fontColor=#000000;" parent="JOAAcKpVN8bpqGciNnZg-10" vertex="1" connectable="0">
          <mxGeometry x="-0.1024" y="2" relative="1" as="geometry">
            <mxPoint as="offset" />
          </mxGeometry>
        </mxCell>
        <mxCell id="JOAAcKpVN8bpqGciNnZg-3" value="&lt;div&gt;if&lt;br&gt;&lt;/div&gt;&lt;div&gt;i == 1023 &amp;amp;&lt;br&gt;&lt;/div&gt;&lt;div&gt;j == 1023 &amp;amp;&lt;br&gt;&lt;/div&gt;&lt;div&gt;k == 1023&lt;br&gt;&lt;/div&gt;" style="rhombus;whiteSpace=wrap;html=1;rounded=0;fontColor=#000000;" parent="1" vertex="1">
          <mxGeometry x="-545.5" y="780.5" width="105" height="105" as="geometry" />
        </mxCell>
        <mxCell id="JOAAcKpVN8bpqGciNnZg-8" style="edgeStyle=orthogonalEdgeStyle;rounded=0;orthogonalLoop=1;jettySize=auto;html=1;entryX=0;entryY=0.5;entryDx=0;entryDy=0;fontColor=#000000;" parent="1" source="JOAAcKpVN8bpqGciNnZg-5" target="TZ_Lwikpa9NxjboD3mck-1" edge="1">
          <mxGeometry relative="1" as="geometry">
            <mxPoint x="-683" y="330" as="targetPoint" />
            <Array as="points">
              <mxPoint x="-683" y="398" />
            </Array>
          </mxGeometry>
        </mxCell>
        <mxCell id="JOAAcKpVN8bpqGciNnZg-5" value="i += 1, j += 1, k += 1" style="whiteSpace=wrap;html=1;rounded=0;fontColor=#000000;" parent="1" vertex="1">
          <mxGeometry x="-748" y="808" width="130" height="50" as="geometry" />
        </mxCell>
        <mxCell id="JOAAcKpVN8bpqGciNnZg-7" value="N" style="text;html=1;align=center;verticalAlign=middle;resizable=0;points=[];autosize=1;strokeColor=none;fillColor=none;fontColor=#000000;" parent="1" vertex="1">
          <mxGeometry x="-595.5" y="818" width="30" height="30" as="geometry" />
        </mxCell>
        <mxCell id="JOAAcKpVN8bpqGciNnZg-52" value="" style="edgeStyle=orthogonalEdgeStyle;rounded=0;orthogonalLoop=1;jettySize=auto;html=1;fontColor=#000000;" parent="1" source="JOAAcKpVN8bpqGciNnZg-9" target="JOAAcKpVN8bpqGciNnZg-51" edge="1">
          <mxGeometry relative="1" as="geometry" />
        </mxCell>
        <mxCell id="JOAAcKpVN8bpqGciNnZg-9" value="&lt;div&gt;FFTW&lt;/div&gt;&lt;div&gt;F[kx,ky,kz] = fftw(f[i,j,k])&lt;/div&gt;" style="whiteSpace=wrap;html=1;rounded=0;fontColor=#000000;" parent="1" vertex="1">
          <mxGeometry x="-573" y="950" width="160" height="50" as="geometry" />
        </mxCell>
        <mxCell id="JOAAcKpVN8bpqGciNnZg-54" value="" style="edgeStyle=orthogonalEdgeStyle;rounded=0;orthogonalLoop=1;jettySize=auto;html=1;fontColor=#000000;" parent="1" source="JOAAcKpVN8bpqGciNnZg-51" target="JOAAcKpVN8bpqGciNnZg-53" edge="1">
          <mxGeometry relative="1" as="geometry" />
        </mxCell>
        <mxCell id="JOAAcKpVN8bpqGciNnZg-51" value="&lt;div&gt;power spectrum&lt;/div&gt;&lt;div&gt;P[0,0,0,k] = &amp;lt;F[kx,ky,kz]^2&amp;gt;&lt;br&gt;&lt;/div&gt;" style="whiteSpace=wrap;html=1;rounded=0;fontColor=#000000;" parent="1" vertex="1">
          <mxGeometry x="-571.5" y="1050" width="157" height="60" as="geometry" />
        </mxCell>
        <mxCell id="JOAAcKpVN8bpqGciNnZg-60" value="" style="edgeStyle=orthogonalEdgeStyle;rounded=0;orthogonalLoop=1;jettySize=auto;html=1;fontColor=#000000;" parent="1" source="JOAAcKpVN8bpqGciNnZg-53" target="JOAAcKpVN8bpqGciNnZg-59" edge="1">
          <mxGeometry relative="1" as="geometry">
            <Array as="points">
              <mxPoint x="-500" y="1320" />
            </Array>
          </mxGeometry>
        </mxCell>
        <mxCell id="JOAAcKpVN8bpqGciNnZg-53" value="write P[0,0,0,k]" style="shape=parallelogram;perimeter=parallelogramPerimeter;whiteSpace=wrap;html=1;fixedSize=1;rounded=0;fontColor=#000000;" parent="1" vertex="1">
          <mxGeometry x="-554.5" y="1169" width="123" height="40" as="geometry" />
        </mxCell>
        <mxCell id="JOAAcKpVN8bpqGciNnZg-62" value="" style="edgeStyle=orthogonalEdgeStyle;rounded=0;orthogonalLoop=1;jettySize=auto;html=1;fontColor=#000000;" parent="1" source="JOAAcKpVN8bpqGciNnZg-59" target="JOAAcKpVN8bpqGciNnZg-61" edge="1">
          <mxGeometry relative="1" as="geometry" />
        </mxCell>
        <mxCell id="JOAAcKpVN8bpqGciNnZg-59" value="&lt;div&gt;read P[0,0,0,k], P[0,0,1,k],&lt;/div&gt;&lt;div&gt;..., P[15,15,15,k]&lt;br&gt;&lt;/div&gt;" style="shape=parallelogram;perimeter=parallelogramPerimeter;whiteSpace=wrap;html=1;fixedSize=1;rounded=0;fontColor=#000000;" parent="1" vertex="1">
          <mxGeometry x="-123.5" y="1280" width="190" height="70" as="geometry" />
        </mxCell>
        <mxCell id="JOAAcKpVN8bpqGciNnZg-61" value="P[k] = sum(P[...,k])" style="whiteSpace=wrap;html=1;rounded=0;fontColor=#000000;" parent="1" vertex="1">
          <mxGeometry x="-99.25" y="1410" width="141.5" height="60" as="geometry" />
        </mxCell>
        <mxCell id="JOAAcKpVN8bpqGciNnZg-64" value="" style="edgeStyle=orthogonalEdgeStyle;rounded=0;orthogonalLoop=1;jettySize=auto;html=1;fontColor=#000000;" parent="1" source="JOAAcKpVN8bpqGciNnZg-65" target="JOAAcKpVN8bpqGciNnZg-67" edge="1">
          <mxGeometry relative="1" as="geometry" />
        </mxCell>
        <mxCell id="JOAAcKpVN8bpqGciNnZg-65" value="load particles" style="rounded=0;whiteSpace=wrap;html=1;fontColor=#000000;" parent="1" vertex="1">
          <mxGeometry x="-258.5" y="80" width="110" height="50" as="geometry" />
        </mxCell>
        <mxCell id="JOAAcKpVN8bpqGciNnZg-66" value="" style="edgeStyle=orthogonalEdgeStyle;rounded=0;orthogonalLoop=1;jettySize=auto;html=1;fontColor=#000000;" parent="1" source="JOAAcKpVN8bpqGciNnZg-67" target="JOAAcKpVN8bpqGciNnZg-69" edge="1">
          <mxGeometry relative="1" as="geometry" />
        </mxCell>
        <mxCell id="JOAAcKpVN8bpqGciNnZg-67" value="&lt;div&gt;ANN: build kd tree&lt;/div&gt;" style="rounded=0;whiteSpace=wrap;html=1;fontColor=#000000;" parent="1" vertex="1">
          <mxGeometry x="-258.5" y="170" width="110" height="50" as="geometry" />
        </mxCell>
        <mxCell id="JOAAcKpVN8bpqGciNnZg-68" value="" style="edgeStyle=orthogonalEdgeStyle;rounded=0;orthogonalLoop=1;jettySize=auto;html=1;fontColor=#000000;" parent="1" source="JOAAcKpVN8bpqGciNnZg-69" target="JOAAcKpVN8bpqGciNnZg-71" edge="1">
          <mxGeometry relative="1" as="geometry" />
        </mxCell>
        <mxCell id="JOAAcKpVN8bpqGciNnZg-69" value="i = 0, j = 0, k = 0" style="rounded=0;whiteSpace=wrap;html=1;fontColor=#000000;" parent="1" vertex="1">
          <mxGeometry x="-258.5" y="260" width="110" height="50" as="geometry" />
        </mxCell>
        <mxCell id="JOAAcKpVN8bpqGciNnZg-70" value="" style="edgeStyle=orthogonalEdgeStyle;rounded=0;orthogonalLoop=1;jettySize=auto;html=1;fontColor=#000000;" parent="1" source="JOAAcKpVN8bpqGciNnZg-71" target="JOAAcKpVN8bpqGciNnZg-73" edge="1">
          <mxGeometry relative="1" as="geometry" />
        </mxCell>
        <mxCell id="JOAAcKpVN8bpqGciNnZg-71" value="&lt;div style=&quot;text-align: left;&quot;&gt;ANN query&lt;/div&gt;&lt;div style=&quot;text-align: left;&quot;&gt;a[0,0,1] = query(&lt;/div&gt;&lt;div style=&quot;text-align: left;&quot;&gt;&amp;nbsp;x = 0*1024 + i,&lt;/div&gt;&lt;div style=&quot;text-align: left;&quot;&gt;&amp;nbsp;y = 0*1024 + j,&lt;/div&gt;&lt;div style=&quot;text-align: left;&quot;&gt;&amp;nbsp;z = 1*1024 + k&lt;/div&gt;&lt;div style=&quot;text-align: left;&quot;&gt;)&lt;/div&gt;" style="whiteSpace=wrap;html=1;rounded=0;fontColor=#000000;" parent="1" vertex="1">
          <mxGeometry x="-266" y="350" width="125" height="95" as="geometry" />
        </mxCell>
        <mxCell id="JOAAcKpVN8bpqGciNnZg-72" value="" style="edgeStyle=orthogonalEdgeStyle;rounded=0;orthogonalLoop=1;jettySize=auto;html=1;fontColor=#000000;" parent="1" source="JOAAcKpVN8bpqGciNnZg-73" target="JOAAcKpVN8bpqGciNnZg-75" edge="1">
          <mxGeometry relative="1" as="geometry" />
        </mxCell>
        <mxCell id="JOAAcKpVN8bpqGciNnZg-155" style="rounded=0;orthogonalLoop=1;jettySize=auto;html=1;jumpStyle=none;fontColor=#000000;" parent="1" source="JOAAcKpVN8bpqGciNnZg-73" target="TZ_Lwikpa9NxjboD3mck-7" edge="1">
          <mxGeometry relative="1" as="geometry" />
        </mxCell>
        <mxCell id="JOAAcKpVN8bpqGciNnZg-161" style="edgeStyle=none;shape=connector;rounded=0;orthogonalLoop=1;jettySize=auto;html=1;labelBackgroundColor=default;strokeColor=default;align=center;verticalAlign=middle;fontFamily=Helvetica;fontSize=11;fontColor=#000000;endArrow=classic;" parent="1" source="JOAAcKpVN8bpqGciNnZg-73" target="JOAAcKpVN8bpqGciNnZg-98" edge="1">
          <mxGeometry relative="1" as="geometry" />
        </mxCell>
        <mxCell id="JOAAcKpVN8bpqGciNnZg-165" style="edgeStyle=none;shape=connector;rounded=0;orthogonalLoop=1;jettySize=auto;html=1;labelBackgroundColor=default;strokeColor=default;align=center;verticalAlign=middle;fontFamily=Helvetica;fontSize=11;fontColor=#000000;endArrow=classic;" parent="1" source="JOAAcKpVN8bpqGciNnZg-73" target="JOAAcKpVN8bpqGciNnZg-120" edge="1">
          <mxGeometry relative="1" as="geometry" />
        </mxCell>
        <mxCell id="JOAAcKpVN8bpqGciNnZg-73" value="write a&lt;font&gt;[0,0,1]&lt;/font&gt;" style="shape=parallelogram;perimeter=parallelogramPerimeter;whiteSpace=wrap;html=1;fixedSize=1;rounded=0;fontColor=#000000;" parent="1" vertex="1">
          <mxGeometry x="-263.5" y="480" width="120" height="40" as="geometry" />
        </mxCell>
        <mxCell id="JOAAcKpVN8bpqGciNnZg-74" value="" style="edgeStyle=orthogonalEdgeStyle;rounded=0;orthogonalLoop=1;jettySize=auto;html=1;fontColor=#000000;" parent="1" source="JOAAcKpVN8bpqGciNnZg-75" target="JOAAcKpVN8bpqGciNnZg-77" edge="1">
          <mxGeometry relative="1" as="geometry" />
        </mxCell>
        <mxCell id="JOAAcKpVN8bpqGciNnZg-75" value="read all a[r,s,t]" style="shape=parallelogram;perimeter=parallelogramPerimeter;whiteSpace=wrap;html=1;fixedSize=1;rounded=0;fontColor=#000000;" parent="1" vertex="1">
          <mxGeometry x="-263.5" y="590" width="120" height="40" as="geometry" />
        </mxCell>
        <mxCell id="JOAAcKpVN8bpqGciNnZg-76" value="" style="edgeStyle=orthogonalEdgeStyle;rounded=0;orthogonalLoop=1;jettySize=auto;html=1;fontColor=#000000;" parent="1" source="JOAAcKpVN8bpqGciNnZg-77" target="JOAAcKpVN8bpqGciNnZg-80" edge="1">
          <mxGeometry relative="1" as="geometry" />
        </mxCell>
        <mxCell id="JOAAcKpVN8bpqGciNnZg-77" value="phase = e^{-i2pi/N&lt;font&gt;(0,0,1)&lt;/font&gt;*(x,y,z)}&lt;br&gt;f[i,j,k] = sum(a[r,s,t] * phase)" style="whiteSpace=wrap;html=1;rounded=0;fontColor=#000000;" parent="1" vertex="1">
          <mxGeometry x="-304.01" y="660" width="201.01" height="60" as="geometry" />
        </mxCell>
        <mxCell id="JOAAcKpVN8bpqGciNnZg-78" value="" style="edgeStyle=orthogonalEdgeStyle;rounded=0;orthogonalLoop=1;jettySize=auto;html=1;fontColor=#000000;" parent="1" source="JOAAcKpVN8bpqGciNnZg-80" target="RxR3Cu6pKEVMTYUcIJLe-5" edge="1">
          <mxGeometry relative="1" as="geometry">
            <mxPoint x="-203.5" y="945" as="targetPoint" />
          </mxGeometry>
        </mxCell>
        <mxCell id="JOAAcKpVN8bpqGciNnZg-79" value="&lt;div&gt;Y&lt;/div&gt;" style="edgeLabel;html=1;align=center;verticalAlign=middle;resizable=0;points=[];fontColor=#000000;" parent="JOAAcKpVN8bpqGciNnZg-78" vertex="1" connectable="0">
          <mxGeometry x="-0.1024" y="2" relative="1" as="geometry">
            <mxPoint as="offset" />
          </mxGeometry>
        </mxCell>
        <mxCell id="JOAAcKpVN8bpqGciNnZg-80" value="&lt;div&gt;if&lt;br&gt;&lt;/div&gt;&lt;div&gt;i == 1023 &amp;amp;&lt;br&gt;&lt;/div&gt;&lt;div&gt;j == 1023 &amp;amp;&lt;br&gt;&lt;/div&gt;&lt;div&gt;k == 1023&lt;br&gt;&lt;/div&gt;" style="rhombus;whiteSpace=wrap;html=1;rounded=0;fontColor=#000000;" parent="1" vertex="1">
          <mxGeometry x="-256" y="780" width="105" height="105" as="geometry" />
        </mxCell>
        <mxCell id="JOAAcKpVN8bpqGciNnZg-82" value="" style="edgeStyle=orthogonalEdgeStyle;rounded=0;orthogonalLoop=1;jettySize=auto;html=1;fontColor=#000000;" parent="1" target="JOAAcKpVN8bpqGciNnZg-85" edge="1">
          <mxGeometry relative="1" as="geometry">
            <mxPoint x="-203.4949999999999" y="1000" as="sourcePoint" />
          </mxGeometry>
        </mxCell>
        <mxCell id="JOAAcKpVN8bpqGciNnZg-84" value="" style="edgeStyle=orthogonalEdgeStyle;rounded=0;orthogonalLoop=1;jettySize=auto;html=1;fontColor=#000000;" parent="1" source="JOAAcKpVN8bpqGciNnZg-85" target="JOAAcKpVN8bpqGciNnZg-86" edge="1">
          <mxGeometry relative="1" as="geometry" />
        </mxCell>
        <mxCell id="JOAAcKpVN8bpqGciNnZg-85" value="&lt;div&gt;power spectrum&lt;/div&gt;&lt;div&gt;P[0,0,1,k] = &amp;lt;F[kx,ky,kz]^2&amp;gt;&lt;br&gt;&lt;/div&gt;" style="whiteSpace=wrap;html=1;rounded=0;fontColor=#000000;" parent="1" vertex="1">
          <mxGeometry x="-282" y="1050" width="157" height="60" as="geometry" />
        </mxCell>
        <mxCell id="JOAAcKpVN8bpqGciNnZg-131" style="edgeStyle=orthogonalEdgeStyle;rounded=0;orthogonalLoop=1;jettySize=auto;html=1;fontColor=#000000;" parent="1" source="JOAAcKpVN8bpqGciNnZg-86" target="JOAAcKpVN8bpqGciNnZg-59" edge="1">
          <mxGeometry relative="1" as="geometry">
            <Array as="points">
              <mxPoint x="-203" y="1315" />
            </Array>
          </mxGeometry>
        </mxCell>
        <mxCell id="JOAAcKpVN8bpqGciNnZg-86" value="write P[0,0,1,k]" style="shape=parallelogram;perimeter=parallelogramPerimeter;whiteSpace=wrap;html=1;fixedSize=1;rounded=0;fontColor=#000000;" parent="1" vertex="1">
          <mxGeometry x="-265" y="1169" width="123" height="40" as="geometry" />
        </mxCell>
        <mxCell id="JOAAcKpVN8bpqGciNnZg-87" value="" style="edgeStyle=orthogonalEdgeStyle;rounded=0;orthogonalLoop=1;jettySize=auto;html=1;fontColor=#000000;" parent="1" source="JOAAcKpVN8bpqGciNnZg-88" target="JOAAcKpVN8bpqGciNnZg-90" edge="1">
          <mxGeometry relative="1" as="geometry" />
        </mxCell>
        <mxCell id="JOAAcKpVN8bpqGciNnZg-88" value="load particles" style="rounded=0;whiteSpace=wrap;html=1;fontColor=#000000;" parent="1" vertex="1">
          <mxGeometry x="45" y="80" width="110" height="50" as="geometry" />
        </mxCell>
        <mxCell id="JOAAcKpVN8bpqGciNnZg-89" value="" style="edgeStyle=orthogonalEdgeStyle;rounded=0;orthogonalLoop=1;jettySize=auto;html=1;fontColor=#000000;" parent="1" source="JOAAcKpVN8bpqGciNnZg-90" target="JOAAcKpVN8bpqGciNnZg-92" edge="1">
          <mxGeometry relative="1" as="geometry" />
        </mxCell>
        <mxCell id="JOAAcKpVN8bpqGciNnZg-90" value="&lt;div&gt;ANN: build kd tree&lt;/div&gt;" style="rounded=0;whiteSpace=wrap;html=1;fontColor=#000000;" parent="1" vertex="1">
          <mxGeometry x="45" y="170" width="110" height="50" as="geometry" />
        </mxCell>
        <mxCell id="JOAAcKpVN8bpqGciNnZg-91" value="" style="edgeStyle=orthogonalEdgeStyle;rounded=0;orthogonalLoop=1;jettySize=auto;html=1;fontColor=#000000;" parent="1" source="JOAAcKpVN8bpqGciNnZg-92" target="JOAAcKpVN8bpqGciNnZg-94" edge="1">
          <mxGeometry relative="1" as="geometry" />
        </mxCell>
        <mxCell id="JOAAcKpVN8bpqGciNnZg-92" value="i = 0, j = 0, k = 0" style="rounded=0;whiteSpace=wrap;html=1;fontColor=#000000;" parent="1" vertex="1">
          <mxGeometry x="45" y="260" width="110" height="50" as="geometry" />
        </mxCell>
        <mxCell id="JOAAcKpVN8bpqGciNnZg-93" value="" style="edgeStyle=orthogonalEdgeStyle;rounded=0;orthogonalLoop=1;jettySize=auto;html=1;fontColor=#000000;" parent="1" source="JOAAcKpVN8bpqGciNnZg-94" target="JOAAcKpVN8bpqGciNnZg-96" edge="1">
          <mxGeometry relative="1" as="geometry" />
        </mxCell>
        <mxCell id="JOAAcKpVN8bpqGciNnZg-94" value="&lt;div style=&quot;text-align: left;&quot;&gt;ANN query&lt;/div&gt;&lt;div style=&quot;text-align: left;&quot;&gt;a[0,0,2] = query(&lt;/div&gt;&lt;div style=&quot;text-align: left;&quot;&gt;&amp;nbsp;x = 0*1024 + i,&lt;/div&gt;&lt;div style=&quot;text-align: left;&quot;&gt;&amp;nbsp;y = 0*1024 + j,&lt;/div&gt;&lt;div style=&quot;text-align: left;&quot;&gt;&amp;nbsp;z = 2*1024 + k&lt;/div&gt;&lt;div style=&quot;text-align: left;&quot;&gt;)&lt;/div&gt;" style="whiteSpace=wrap;html=1;rounded=0;fontColor=#000000;" parent="1" vertex="1">
          <mxGeometry x="37.5" y="350" width="125" height="95" as="geometry" />
        </mxCell>
        <mxCell id="JOAAcKpVN8bpqGciNnZg-95" value="" style="edgeStyle=orthogonalEdgeStyle;rounded=0;orthogonalLoop=1;jettySize=auto;html=1;fontColor=#000000;" parent="1" source="JOAAcKpVN8bpqGciNnZg-96" target="JOAAcKpVN8bpqGciNnZg-98" edge="1">
          <mxGeometry relative="1" as="geometry" />
        </mxCell>
        <mxCell id="JOAAcKpVN8bpqGciNnZg-156" style="rounded=0;orthogonalLoop=1;jettySize=auto;html=1;fontColor=#000000;" parent="1" source="JOAAcKpVN8bpqGciNnZg-96" target="TZ_Lwikpa9NxjboD3mck-7" edge="1">
          <mxGeometry relative="1" as="geometry" />
        </mxCell>
        <mxCell id="JOAAcKpVN8bpqGciNnZg-159" style="edgeStyle=none;shape=connector;rounded=0;orthogonalLoop=1;jettySize=auto;html=1;labelBackgroundColor=default;strokeColor=default;align=center;verticalAlign=middle;fontFamily=Helvetica;fontSize=11;fontColor=#000000;endArrow=classic;" parent="1" source="JOAAcKpVN8bpqGciNnZg-96" target="JOAAcKpVN8bpqGciNnZg-75" edge="1">
          <mxGeometry relative="1" as="geometry" />
        </mxCell>
        <mxCell id="JOAAcKpVN8bpqGciNnZg-164" style="edgeStyle=none;shape=connector;rounded=0;orthogonalLoop=1;jettySize=auto;html=1;labelBackgroundColor=default;strokeColor=default;align=center;verticalAlign=middle;fontFamily=Helvetica;fontSize=11;fontColor=#000000;endArrow=classic;" parent="1" source="JOAAcKpVN8bpqGciNnZg-96" target="JOAAcKpVN8bpqGciNnZg-120" edge="1">
          <mxGeometry relative="1" as="geometry" />
        </mxCell>
        <mxCell id="JOAAcKpVN8bpqGciNnZg-96" value="write a&lt;font&gt;[0,0,2]&lt;/font&gt;" style="shape=parallelogram;perimeter=parallelogramPerimeter;whiteSpace=wrap;html=1;fixedSize=1;rounded=0;fontColor=#000000;" parent="1" vertex="1">
          <mxGeometry x="40" y="480" width="120" height="40" as="geometry" />
        </mxCell>
        <mxCell id="JOAAcKpVN8bpqGciNnZg-97" value="" style="edgeStyle=orthogonalEdgeStyle;rounded=0;orthogonalLoop=1;jettySize=auto;html=1;fontColor=#000000;" parent="1" source="JOAAcKpVN8bpqGciNnZg-98" target="RxR3Cu6pKEVMTYUcIJLe-2" edge="1">
          <mxGeometry relative="1" as="geometry">
            <mxPoint x="100" y="670" as="targetPoint" />
            <Array as="points">
              <mxPoint x="100" y="650" />
              <mxPoint x="101" y="650" />
            </Array>
          </mxGeometry>
        </mxCell>
        <mxCell id="JOAAcKpVN8bpqGciNnZg-98" value="read all a[r,s,t]" style="shape=parallelogram;perimeter=parallelogramPerimeter;whiteSpace=wrap;html=1;fixedSize=1;rounded=0;fontColor=#000000;" parent="1" vertex="1">
          <mxGeometry x="40" y="590" width="120" height="40" as="geometry" />
        </mxCell>
        <mxCell id="JOAAcKpVN8bpqGciNnZg-99" value="" style="edgeStyle=orthogonalEdgeStyle;rounded=0;orthogonalLoop=1;jettySize=auto;html=1;fontColor=#000000;" parent="1" source="RxR3Cu6pKEVMTYUcIJLe-2" target="JOAAcKpVN8bpqGciNnZg-103" edge="1">
          <mxGeometry relative="1" as="geometry">
            <mxPoint x="100" y="720" as="sourcePoint" />
          </mxGeometry>
        </mxCell>
        <mxCell id="JOAAcKpVN8bpqGciNnZg-101" value="" style="edgeStyle=orthogonalEdgeStyle;rounded=0;orthogonalLoop=1;jettySize=auto;html=1;fontColor=#000000;" parent="1" source="JOAAcKpVN8bpqGciNnZg-103" target="RxR3Cu6pKEVMTYUcIJLe-7" edge="1">
          <mxGeometry relative="1" as="geometry">
            <mxPoint x="100.09999999999991" y="945" as="targetPoint" />
          </mxGeometry>
        </mxCell>
        <mxCell id="JOAAcKpVN8bpqGciNnZg-102" value="&lt;div&gt;Y&lt;/div&gt;" style="edgeLabel;html=1;align=center;verticalAlign=middle;resizable=0;points=[];fontColor=#000000;" parent="JOAAcKpVN8bpqGciNnZg-101" vertex="1" connectable="0">
          <mxGeometry x="-0.1024" y="2" relative="1" as="geometry">
            <mxPoint as="offset" />
          </mxGeometry>
        </mxCell>
        <mxCell id="JOAAcKpVN8bpqGciNnZg-103" value="&lt;div&gt;if&lt;br&gt;&lt;/div&gt;&lt;div&gt;i == 1023 &amp;amp;&lt;br&gt;&lt;/div&gt;&lt;div&gt;j == 1023 &amp;amp;&lt;br&gt;&lt;/div&gt;&lt;div&gt;k == 1023&lt;br&gt;&lt;/div&gt;" style="rhombus;whiteSpace=wrap;html=1;rounded=0;fontColor=#000000;" parent="1" vertex="1">
          <mxGeometry x="47.5" y="780.5" width="105" height="105" as="geometry" />
        </mxCell>
        <mxCell id="JOAAcKpVN8bpqGciNnZg-104" value="" style="edgeStyle=orthogonalEdgeStyle;rounded=0;orthogonalLoop=1;jettySize=auto;html=1;fontColor=#000000;" parent="1" source="RxR3Cu6pKEVMTYUcIJLe-7" target="JOAAcKpVN8bpqGciNnZg-107" edge="1">
          <mxGeometry relative="1" as="geometry">
            <mxPoint x="100" y="1000" as="sourcePoint" />
          </mxGeometry>
        </mxCell>
        <mxCell id="JOAAcKpVN8bpqGciNnZg-106" value="" style="edgeStyle=orthogonalEdgeStyle;rounded=0;orthogonalLoop=1;jettySize=auto;html=1;fontColor=#000000;" parent="1" source="JOAAcKpVN8bpqGciNnZg-107" target="JOAAcKpVN8bpqGciNnZg-108" edge="1">
          <mxGeometry relative="1" as="geometry" />
        </mxCell>
        <mxCell id="JOAAcKpVN8bpqGciNnZg-107" value="&lt;div&gt;power spectrum&lt;/div&gt;&lt;div&gt;P[0,0,2,k] = &amp;lt;F[kx,ky,kz]^2&amp;gt;&lt;br&gt;&lt;/div&gt;" style="whiteSpace=wrap;html=1;rounded=0;fontColor=#000000;" parent="1" vertex="1">
          <mxGeometry x="21.5" y="1050" width="157" height="60" as="geometry" />
        </mxCell>
        <mxCell id="JOAAcKpVN8bpqGciNnZg-132" style="edgeStyle=orthogonalEdgeStyle;rounded=0;orthogonalLoop=1;jettySize=auto;html=1;fontColor=#000000;" parent="1" source="JOAAcKpVN8bpqGciNnZg-108" target="JOAAcKpVN8bpqGciNnZg-59" edge="1">
          <mxGeometry relative="1" as="geometry">
            <Array as="points">
              <mxPoint x="100" y="1310" />
            </Array>
          </mxGeometry>
        </mxCell>
        <mxCell id="JOAAcKpVN8bpqGciNnZg-108" value="write P[0,0,2,k]" style="shape=parallelogram;perimeter=parallelogramPerimeter;whiteSpace=wrap;html=1;fixedSize=1;rounded=0;fontColor=#000000;" parent="1" vertex="1">
          <mxGeometry x="38.5" y="1169" width="123" height="40" as="geometry" />
        </mxCell>
        <mxCell id="JOAAcKpVN8bpqGciNnZg-109" value="" style="edgeStyle=orthogonalEdgeStyle;rounded=0;orthogonalLoop=1;jettySize=auto;html=1;fontColor=#000000;" parent="1" source="JOAAcKpVN8bpqGciNnZg-110" target="JOAAcKpVN8bpqGciNnZg-112" edge="1">
          <mxGeometry relative="1" as="geometry" />
        </mxCell>
        <mxCell id="JOAAcKpVN8bpqGciNnZg-110" value="load particles" style="rounded=0;whiteSpace=wrap;html=1;fontColor=#000000;" parent="1" vertex="1">
          <mxGeometry x="475" y="80" width="110" height="50" as="geometry" />
        </mxCell>
        <mxCell id="JOAAcKpVN8bpqGciNnZg-111" value="" style="edgeStyle=orthogonalEdgeStyle;rounded=0;orthogonalLoop=1;jettySize=auto;html=1;fontColor=#000000;" parent="1" source="JOAAcKpVN8bpqGciNnZg-112" target="JOAAcKpVN8bpqGciNnZg-114" edge="1">
          <mxGeometry relative="1" as="geometry" />
        </mxCell>
        <mxCell id="JOAAcKpVN8bpqGciNnZg-112" value="&lt;div&gt;ANN: build kd tree&lt;/div&gt;" style="rounded=0;whiteSpace=wrap;html=1;fontColor=#000000;" parent="1" vertex="1">
          <mxGeometry x="475" y="170" width="110" height="50" as="geometry" />
        </mxCell>
        <mxCell id="JOAAcKpVN8bpqGciNnZg-113" value="" style="edgeStyle=orthogonalEdgeStyle;rounded=0;orthogonalLoop=1;jettySize=auto;html=1;fontColor=#000000;" parent="1" source="JOAAcKpVN8bpqGciNnZg-114" target="JOAAcKpVN8bpqGciNnZg-116" edge="1">
          <mxGeometry relative="1" as="geometry" />
        </mxCell>
        <mxCell id="JOAAcKpVN8bpqGciNnZg-114" value="i = 0, j = 0, k = 0" style="rounded=0;whiteSpace=wrap;html=1;fontColor=#000000;" parent="1" vertex="1">
          <mxGeometry x="475" y="260" width="110" height="50" as="geometry" />
        </mxCell>
        <mxCell id="JOAAcKpVN8bpqGciNnZg-115" value="" style="edgeStyle=orthogonalEdgeStyle;rounded=0;orthogonalLoop=1;jettySize=auto;html=1;fontColor=#000000;" parent="1" source="JOAAcKpVN8bpqGciNnZg-116" target="JOAAcKpVN8bpqGciNnZg-118" edge="1">
          <mxGeometry relative="1" as="geometry" />
        </mxCell>
        <mxCell id="JOAAcKpVN8bpqGciNnZg-116" value="&lt;div style=&quot;text-align: left;&quot;&gt;ANN query&lt;/div&gt;&lt;div style=&quot;text-align: left;&quot;&gt;a[15,15,15] = query(&lt;/div&gt;&lt;div style=&quot;text-align: left;&quot;&gt;&amp;nbsp;x = 15*1024 + i,&lt;/div&gt;&lt;div style=&quot;text-align: left;&quot;&gt;&amp;nbsp;y = 15*1024 + j,&lt;/div&gt;&lt;div style=&quot;text-align: left;&quot;&gt;&amp;nbsp;z = 15*1024 + k&lt;/div&gt;&lt;div style=&quot;text-align: left;&quot;&gt;)&lt;/div&gt;" style="whiteSpace=wrap;html=1;rounded=0;fontColor=#000000;" parent="1" vertex="1">
          <mxGeometry x="458.5" y="350" width="142.5" height="95" as="geometry" />
        </mxCell>
        <mxCell id="JOAAcKpVN8bpqGciNnZg-117" value="" style="edgeStyle=orthogonalEdgeStyle;rounded=0;orthogonalLoop=1;jettySize=auto;html=1;fontColor=#000000;" parent="1" source="JOAAcKpVN8bpqGciNnZg-118" target="JOAAcKpVN8bpqGciNnZg-120" edge="1">
          <mxGeometry relative="1" as="geometry" />
        </mxCell>
        <mxCell id="JOAAcKpVN8bpqGciNnZg-157" style="edgeStyle=none;shape=connector;rounded=0;orthogonalLoop=1;jettySize=auto;html=1;labelBackgroundColor=default;strokeColor=default;align=center;verticalAlign=middle;fontFamily=Helvetica;fontSize=11;fontColor=#000000;endArrow=classic;" parent="1" source="JOAAcKpVN8bpqGciNnZg-118" target="TZ_Lwikpa9NxjboD3mck-7" edge="1">
          <mxGeometry relative="1" as="geometry" />
        </mxCell>
        <mxCell id="JOAAcKpVN8bpqGciNnZg-160" style="edgeStyle=none;shape=connector;rounded=0;orthogonalLoop=1;jettySize=auto;html=1;labelBackgroundColor=default;strokeColor=default;align=center;verticalAlign=middle;fontFamily=Helvetica;fontSize=11;fontColor=#000000;endArrow=classic;" parent="1" source="JOAAcKpVN8bpqGciNnZg-118" target="JOAAcKpVN8bpqGciNnZg-75" edge="1">
          <mxGeometry relative="1" as="geometry" />
        </mxCell>
        <mxCell id="JOAAcKpVN8bpqGciNnZg-163" style="edgeStyle=none;shape=connector;rounded=0;orthogonalLoop=1;jettySize=auto;html=1;labelBackgroundColor=default;strokeColor=default;align=center;verticalAlign=middle;fontFamily=Helvetica;fontSize=11;fontColor=#000000;endArrow=classic;" parent="1" source="JOAAcKpVN8bpqGciNnZg-118" target="JOAAcKpVN8bpqGciNnZg-98" edge="1">
          <mxGeometry relative="1" as="geometry" />
        </mxCell>
        <mxCell id="JOAAcKpVN8bpqGciNnZg-118" value="write a[15,15,15]" style="shape=parallelogram;perimeter=parallelogramPerimeter;whiteSpace=wrap;html=1;fixedSize=1;rounded=0;fontColor=#000000;" parent="1" vertex="1">
          <mxGeometry x="470" y="480" width="120" height="40" as="geometry" />
        </mxCell>
        <mxCell id="JOAAcKpVN8bpqGciNnZg-119" value="" style="edgeStyle=orthogonalEdgeStyle;rounded=0;orthogonalLoop=1;jettySize=auto;html=1;fontColor=#000000;" parent="1" source="JOAAcKpVN8bpqGciNnZg-120" target="RxR3Cu6pKEVMTYUcIJLe-3" edge="1">
          <mxGeometry relative="1" as="geometry">
            <mxPoint x="530" y="670" as="targetPoint" />
          </mxGeometry>
        </mxCell>
        <mxCell id="JOAAcKpVN8bpqGciNnZg-120" value="read all a[r,s,t]" style="shape=parallelogram;perimeter=parallelogramPerimeter;whiteSpace=wrap;html=1;fixedSize=1;rounded=0;fontColor=#000000;" parent="1" vertex="1">
          <mxGeometry x="470" y="590" width="120" height="40" as="geometry" />
        </mxCell>
        <mxCell id="JOAAcKpVN8bpqGciNnZg-121" value="" style="edgeStyle=orthogonalEdgeStyle;rounded=0;orthogonalLoop=1;jettySize=auto;html=1;fontColor=#000000;" parent="1" target="JOAAcKpVN8bpqGciNnZg-125" edge="1">
          <mxGeometry relative="1" as="geometry">
            <mxPoint x="530" y="720" as="sourcePoint" />
          </mxGeometry>
        </mxCell>
        <mxCell id="JOAAcKpVN8bpqGciNnZg-123" value="" style="edgeStyle=orthogonalEdgeStyle;rounded=0;orthogonalLoop=1;jettySize=auto;html=1;fontColor=#000000;" parent="1" source="JOAAcKpVN8bpqGciNnZg-125" target="RxR3Cu6pKEVMTYUcIJLe-9" edge="1">
          <mxGeometry relative="1" as="geometry">
            <mxPoint x="530" y="945" as="targetPoint" />
          </mxGeometry>
        </mxCell>
        <mxCell id="JOAAcKpVN8bpqGciNnZg-124" value="&lt;div&gt;Y&lt;/div&gt;" style="edgeLabel;html=1;align=center;verticalAlign=middle;resizable=0;points=[];fontColor=#000000;" parent="JOAAcKpVN8bpqGciNnZg-123" vertex="1" connectable="0">
          <mxGeometry x="-0.1024" y="2" relative="1" as="geometry">
            <mxPoint as="offset" />
          </mxGeometry>
        </mxCell>
        <mxCell id="JOAAcKpVN8bpqGciNnZg-125" value="&lt;div&gt;if&lt;br&gt;&lt;/div&gt;&lt;div&gt;i == 1023 &amp;amp;&lt;br&gt;&lt;/div&gt;&lt;div&gt;j == 1023 &amp;amp;&lt;br&gt;&lt;/div&gt;&lt;div&gt;k == 1023&lt;br&gt;&lt;/div&gt;" style="rhombus;whiteSpace=wrap;html=1;rounded=0;fontColor=#000000;" parent="1" vertex="1">
          <mxGeometry x="477.5" y="780.5" width="105" height="105" as="geometry" />
        </mxCell>
        <mxCell id="JOAAcKpVN8bpqGciNnZg-126" value="" style="edgeStyle=orthogonalEdgeStyle;rounded=0;orthogonalLoop=1;jettySize=auto;html=1;fontColor=#000000;" parent="1" source="RxR3Cu6pKEVMTYUcIJLe-9" target="JOAAcKpVN8bpqGciNnZg-129" edge="1">
          <mxGeometry relative="1" as="geometry">
            <mxPoint x="530" y="1000" as="sourcePoint" />
          </mxGeometry>
        </mxCell>
        <mxCell id="JOAAcKpVN8bpqGciNnZg-128" value="" style="edgeStyle=orthogonalEdgeStyle;rounded=0;orthogonalLoop=1;jettySize=auto;html=1;fontColor=#000000;" parent="1" source="JOAAcKpVN8bpqGciNnZg-129" target="JOAAcKpVN8bpqGciNnZg-130" edge="1">
          <mxGeometry relative="1" as="geometry" />
        </mxCell>
        <mxCell id="JOAAcKpVN8bpqGciNnZg-129" value="&lt;div&gt;power spectrum&lt;/div&gt;&lt;div&gt;P[15,15,15,k] = &amp;lt;F[kx,ky,kz]^2&amp;gt;&lt;br&gt;&lt;/div&gt;" style="whiteSpace=wrap;html=1;rounded=0;fontColor=#000000;" parent="1" vertex="1">
          <mxGeometry x="450" y="1050" width="158.25" height="60" as="geometry" />
        </mxCell>
        <mxCell id="JOAAcKpVN8bpqGciNnZg-133" style="edgeStyle=orthogonalEdgeStyle;rounded=0;orthogonalLoop=1;jettySize=auto;html=1;fontColor=#000000;" parent="1" source="JOAAcKpVN8bpqGciNnZg-130" target="JOAAcKpVN8bpqGciNnZg-59" edge="1">
          <mxGeometry relative="1" as="geometry">
            <Array as="points">
              <mxPoint x="530" y="1315" />
            </Array>
          </mxGeometry>
        </mxCell>
        <mxCell id="JOAAcKpVN8bpqGciNnZg-130" value="write P[15,15,15,k]" style="shape=parallelogram;perimeter=parallelogramPerimeter;whiteSpace=wrap;html=1;fixedSize=1;rounded=0;fontColor=#000000;" parent="1" vertex="1">
          <mxGeometry x="468.5" y="1169" width="123" height="40" as="geometry" />
        </mxCell>
        <mxCell id="JOAAcKpVN8bpqGciNnZg-134" value="&lt;div style=&quot;font-size: 22px;&quot;&gt;...&lt;/div&gt;" style="text;html=1;align=center;verticalAlign=middle;resizable=0;points=[];autosize=1;strokeColor=none;fillColor=none;fontColor=#000000;" parent="1" vertex="1">
          <mxGeometry x="290" y="180" width="40" height="40" as="geometry" />
        </mxCell>
        <mxCell id="JOAAcKpVN8bpqGciNnZg-135" value="&lt;div style=&quot;font-size: 22px;&quot;&gt;...&lt;/div&gt;" style="text;html=1;align=center;verticalAlign=middle;resizable=0;points=[];autosize=1;strokeColor=none;fillColor=none;fontColor=#000000;" parent="1" vertex="1">
          <mxGeometry x="290" y="1169" width="40" height="40" as="geometry" />
        </mxCell>
        <mxCell id="JOAAcKpVN8bpqGciNnZg-136" value="&lt;div style=&quot;font-size: 22px;&quot;&gt;...&lt;/div&gt;" style="text;html=1;align=center;verticalAlign=middle;resizable=0;points=[];autosize=1;strokeColor=none;fillColor=none;fontColor=#000000;" parent="1" vertex="1">
          <mxGeometry x="290" y="955" width="40" height="40" as="geometry" />
        </mxCell>
        <mxCell id="JOAAcKpVN8bpqGciNnZg-137" value="&lt;div style=&quot;font-size: 22px;&quot;&gt;...&lt;/div&gt;" style="text;html=1;align=center;verticalAlign=middle;resizable=0;points=[];autosize=1;strokeColor=none;fillColor=none;fontColor=#000000;" parent="1" vertex="1">
          <mxGeometry x="290" y="1060" width="40" height="40" as="geometry" />
        </mxCell>
        <mxCell id="JOAAcKpVN8bpqGciNnZg-138" value="&lt;div style=&quot;font-size: 22px;&quot;&gt;...&lt;/div&gt;" style="text;html=1;align=center;verticalAlign=middle;resizable=0;points=[];autosize=1;strokeColor=none;fillColor=none;fontColor=#000000;" parent="1" vertex="1">
          <mxGeometry x="290" y="680" width="40" height="40" as="geometry" />
        </mxCell>
        <mxCell id="JOAAcKpVN8bpqGciNnZg-139" value="&lt;div style=&quot;font-size: 22px;&quot;&gt;...&lt;/div&gt;" style="text;html=1;align=center;verticalAlign=middle;resizable=0;points=[];autosize=1;strokeColor=none;fillColor=none;fontColor=#000000;" parent="1" vertex="1">
          <mxGeometry x="290" y="590" width="40" height="40" as="geometry" />
        </mxCell>
        <mxCell id="JOAAcKpVN8bpqGciNnZg-140" value="&lt;div style=&quot;font-size: 22px;&quot;&gt;...&lt;/div&gt;" style="text;html=1;align=center;verticalAlign=middle;resizable=0;points=[];autosize=1;strokeColor=none;fillColor=none;fontColor=#000000;" parent="1" vertex="1">
          <mxGeometry x="290" y="480" width="40" height="40" as="geometry" />
        </mxCell>
        <mxCell id="JOAAcKpVN8bpqGciNnZg-141" value="&lt;div style=&quot;font-size: 22px;&quot;&gt;...&lt;/div&gt;" style="text;html=1;align=center;verticalAlign=middle;resizable=0;points=[];autosize=1;strokeColor=none;fillColor=none;fontColor=#000000;" parent="1" vertex="1">
          <mxGeometry x="290" y="377.5" width="40" height="40" as="geometry" />
        </mxCell>
        <mxCell id="JOAAcKpVN8bpqGciNnZg-142" value="" style="edgeStyle=orthogonalEdgeStyle;rounded=0;orthogonalLoop=1;jettySize=auto;html=1;fontColor=#000000;" parent="1" target="JOAAcKpVN8bpqGciNnZg-144" edge="1">
          <mxGeometry relative="1" as="geometry">
            <mxPoint x="-256" y="833" as="sourcePoint" />
          </mxGeometry>
        </mxCell>
        <mxCell id="JOAAcKpVN8bpqGciNnZg-146" value="&lt;div&gt;N&lt;/div&gt;" style="edgeLabel;html=1;align=center;verticalAlign=middle;resizable=0;points=[];fontColor=#000000;" parent="JOAAcKpVN8bpqGciNnZg-142" vertex="1" connectable="0">
          <mxGeometry x="-0.0923" y="-1" relative="1" as="geometry">
            <mxPoint as="offset" />
          </mxGeometry>
        </mxCell>
        <mxCell id="JOAAcKpVN8bpqGciNnZg-143" style="edgeStyle=orthogonalEdgeStyle;rounded=0;orthogonalLoop=1;jettySize=auto;html=1;entryX=0;entryY=0.5;entryDx=0;entryDy=0;fontColor=#000000;" parent="1" source="JOAAcKpVN8bpqGciNnZg-144" edge="1">
          <mxGeometry relative="1" as="geometry">
            <mxPoint x="-266" y="398" as="targetPoint" />
            <Array as="points">
              <mxPoint x="-370" y="398" />
            </Array>
          </mxGeometry>
        </mxCell>
        <mxCell id="JOAAcKpVN8bpqGciNnZg-144" value="i += 1, j += 1, k += 1" style="whiteSpace=wrap;html=1;rounded=0;fontColor=#000000;" parent="1" vertex="1">
          <mxGeometry x="-430.5" y="808" width="131" height="52" as="geometry" />
        </mxCell>
        <mxCell id="JOAAcKpVN8bpqGciNnZg-147" value="" style="edgeStyle=orthogonalEdgeStyle;rounded=0;orthogonalLoop=1;jettySize=auto;html=1;fontColor=#000000;" parent="1" target="JOAAcKpVN8bpqGciNnZg-150" edge="1">
          <mxGeometry relative="1" as="geometry">
            <mxPoint x="48" y="833" as="sourcePoint" />
          </mxGeometry>
        </mxCell>
        <mxCell id="JOAAcKpVN8bpqGciNnZg-148" value="&lt;div&gt;N&lt;/div&gt;" style="edgeLabel;html=1;align=center;verticalAlign=middle;resizable=0;points=[];fontColor=#000000;" parent="JOAAcKpVN8bpqGciNnZg-147" vertex="1" connectable="0">
          <mxGeometry x="-0.0923" y="-1" relative="1" as="geometry">
            <mxPoint as="offset" />
          </mxGeometry>
        </mxCell>
        <mxCell id="JOAAcKpVN8bpqGciNnZg-149" style="edgeStyle=orthogonalEdgeStyle;rounded=0;orthogonalLoop=1;jettySize=auto;html=1;entryX=0;entryY=0.5;entryDx=0;entryDy=0;fontColor=#000000;" parent="1" source="JOAAcKpVN8bpqGciNnZg-150" edge="1">
          <mxGeometry relative="1" as="geometry">
            <mxPoint x="38" y="398" as="targetPoint" />
            <Array as="points">
              <mxPoint x="-66" y="398" />
            </Array>
          </mxGeometry>
        </mxCell>
        <mxCell id="JOAAcKpVN8bpqGciNnZg-150" value="i += 1, j += 1, k += 1" style="whiteSpace=wrap;html=1;rounded=0;fontColor=#000000;" parent="1" vertex="1">
          <mxGeometry x="-126.5" y="808" width="131" height="52" as="geometry" />
        </mxCell>
        <mxCell id="JOAAcKpVN8bpqGciNnZg-151" value="" style="edgeStyle=orthogonalEdgeStyle;rounded=0;orthogonalLoop=1;jettySize=auto;html=1;fontColor=#000000;" parent="1" edge="1">
          <mxGeometry relative="1" as="geometry">
            <mxPoint x="477" y="833" as="sourcePoint" />
            <mxPoint x="433.5" y="834" as="targetPoint" />
          </mxGeometry>
        </mxCell>
        <mxCell id="JOAAcKpVN8bpqGciNnZg-152" value="&lt;div&gt;N&lt;/div&gt;" style="edgeLabel;html=1;align=center;verticalAlign=middle;resizable=0;points=[];fontColor=#000000;" parent="JOAAcKpVN8bpqGciNnZg-151" vertex="1" connectable="0">
          <mxGeometry x="-0.0923" y="-1" relative="1" as="geometry">
            <mxPoint as="offset" />
          </mxGeometry>
        </mxCell>
        <mxCell id="JOAAcKpVN8bpqGciNnZg-153" style="edgeStyle=orthogonalEdgeStyle;rounded=0;orthogonalLoop=1;jettySize=auto;html=1;entryX=0;entryY=0.5;entryDx=0;entryDy=0;fontColor=#000000;" parent="1" edge="1">
          <mxGeometry relative="1" as="geometry">
            <mxPoint x="467" y="398" as="targetPoint" />
            <Array as="points">
              <mxPoint x="363" y="398" />
            </Array>
            <mxPoint x="363" y="808" as="sourcePoint" />
          </mxGeometry>
        </mxCell>
        <mxCell id="JOAAcKpVN8bpqGciNnZg-154" value="i += 1, j += 1, k += 1" style="whiteSpace=wrap;html=1;rounded=0;fontColor=#000000;" parent="1" vertex="1">
          <mxGeometry x="301.5" y="808" width="131" height="52" as="geometry" />
        </mxCell>
        <mxCell id="JOAAcKpVN8bpqGciNnZg-172" value="&lt;div&gt;&lt;font style=&quot;font-size: 13px;&quot;&gt;CPU0&lt;br&gt;&lt;/font&gt;&lt;/div&gt;&lt;div&gt;&lt;font style=&quot;font-size: 13px;&quot;&gt;(r,s,t) = (0,0,0)&lt;br&gt;&lt;/font&gt;&lt;/div&gt;" style="text;html=1;align=center;verticalAlign=middle;resizable=0;points=[];autosize=1;strokeColor=none;fillColor=none;fontSize=11;fontFamily=Helvetica;fontColor=#000000;" parent="1" vertex="1">
          <mxGeometry x="-548" y="23" width="110" height="40" as="geometry" />
        </mxCell>
        <mxCell id="JOAAcKpVN8bpqGciNnZg-173" value="&lt;div&gt;&lt;font style=&quot;font-size: 13px;&quot;&gt;CPU1&lt;/font&gt;&lt;/div&gt;&lt;div&gt;&lt;font style=&quot;font-size: 13px;&quot;&gt;(r,s,t) = (0,0,1)&lt;br&gt;&lt;/font&gt;&lt;/div&gt;" style="text;html=1;align=center;verticalAlign=middle;resizable=0;points=[];autosize=1;strokeColor=none;fillColor=none;fontSize=11;fontFamily=Helvetica;fontColor=#000000;" parent="1" vertex="1">
          <mxGeometry x="-258.5" y="23" width="110" height="40" as="geometry" />
        </mxCell>
        <mxCell id="JOAAcKpVN8bpqGciNnZg-174" value="&lt;div&gt;&lt;font style=&quot;font-size: 13px;&quot;&gt;CPU2&lt;br&gt;&lt;/font&gt;&lt;/div&gt;&lt;div&gt;&lt;font style=&quot;font-size: 13px;&quot;&gt;(r,s,t) = (0,0,2)&lt;br&gt;&lt;/font&gt;&lt;/div&gt;" style="text;html=1;align=center;verticalAlign=middle;resizable=0;points=[];autosize=1;strokeColor=none;fillColor=none;fontSize=11;fontFamily=Helvetica;fontColor=#000000;" parent="1" vertex="1">
          <mxGeometry x="50.25" y="23" width="110" height="40" as="geometry" />
        </mxCell>
        <mxCell id="JOAAcKpVN8bpqGciNnZg-175" value="&lt;div&gt;&lt;font style=&quot;font-size: 13px;&quot;&gt;CPU4095&lt;/font&gt;&lt;/div&gt;&lt;div&gt;&lt;font style=&quot;font-size: 13px;&quot;&gt;(r,s,t) = (15,15,15)&lt;br&gt;&lt;/font&gt;&lt;/div&gt;" style="text;html=1;align=center;verticalAlign=middle;resizable=0;points=[];autosize=1;strokeColor=none;fillColor=none;fontSize=11;fontFamily=Helvetica;fontColor=#000000;" parent="1" vertex="1">
          <mxGeometry x="464.75" y="23" width="130" height="40" as="geometry" />
        </mxCell>
        <mxCell id="RxR3Cu6pKEVMTYUcIJLe-2" value="phase = e^{-i2pi/N&lt;font&gt;(0,0,2)&lt;/font&gt;*(x,y,z)}&lt;br&gt;f[i,j,k] = sum(a[r,s,t] * phase)" style="whiteSpace=wrap;html=1;rounded=0;fontColor=#000000;" parent="1" vertex="1">
          <mxGeometry x="-0.5100000000000016" y="660" width="201.01" height="60" as="geometry" />
        </mxCell>
        <mxCell id="RxR3Cu6pKEVMTYUcIJLe-4" value="" style="edgeStyle=orthogonalEdgeStyle;rounded=0;orthogonalLoop=1;jettySize=auto;html=1;fontColor=#000000;" parent="1" source="RxR3Cu6pKEVMTYUcIJLe-3" target="JOAAcKpVN8bpqGciNnZg-125" edge="1">
          <mxGeometry relative="1" as="geometry" />
        </mxCell>
        <mxCell id="RxR3Cu6pKEVMTYUcIJLe-3" value="phase = e^{-i2pi/N&lt;font&gt;(15,15,15)&lt;/font&gt;*(x,y,z)}&lt;br&gt;f[i,j,k] = sum(a[r,s,t] * phase)" style="whiteSpace=wrap;html=1;rounded=0;fontColor=#000000;" parent="1" vertex="1">
          <mxGeometry x="428.62" y="660" width="201.01" height="60" as="geometry" />
        </mxCell>
        <mxCell id="RxR3Cu6pKEVMTYUcIJLe-6" value="" style="edgeStyle=orthogonalEdgeStyle;rounded=0;orthogonalLoop=1;jettySize=auto;html=1;fontColor=#000000;" parent="1" source="RxR3Cu6pKEVMTYUcIJLe-5" target="JOAAcKpVN8bpqGciNnZg-85" edge="1">
          <mxGeometry relative="1" as="geometry" />
        </mxCell>
        <mxCell id="RxR3Cu6pKEVMTYUcIJLe-5" value="&lt;div&gt;FFTW&lt;/div&gt;&lt;div&gt;F[kx,ky,kz] = fftw(f[i,j,k])&lt;/div&gt;" style="whiteSpace=wrap;html=1;rounded=0;fontColor=#000000;" parent="1" vertex="1">
          <mxGeometry x="-283" y="950" width="160" height="50" as="geometry" />
        </mxCell>
        <mxCell id="RxR3Cu6pKEVMTYUcIJLe-7" value="&lt;div&gt;FFTW&lt;/div&gt;&lt;div&gt;F[kx,ky,kz] = fftw(f[i,j,k])&lt;/div&gt;" style="whiteSpace=wrap;html=1;rounded=0;fontColor=#000000;" parent="1" vertex="1">
          <mxGeometry x="20" y="950" width="160" height="50" as="geometry" />
        </mxCell>
        <mxCell id="RxR3Cu6pKEVMTYUcIJLe-9" value="&lt;div&gt;FFTW&lt;/div&gt;&lt;div&gt;F[kx,ky,kz] = fftw(f[i,j,k])&lt;/div&gt;" style="whiteSpace=wrap;html=1;rounded=0;fontColor=#000000;" parent="1" vertex="1">
          <mxGeometry x="449.75" y="945" width="160" height="50" as="geometry" />
        </mxCell>
      </root>
    </mxGraphModel>
  </diagram>
</mxfile>
